<?xml version="1.0" encoding="UTF-8" ?>
<!DOCTYPE svg PUBLIC "-//W3C//DTD SVG 1.1//EN" "http://www.w3.org/Graphics/SVG/1.1/DTD/svg11.dtd">
<svg width="500pt" height="500pt" viewBox="0 0 500 500" version="1.1" xmlns="http://www.w3.org/2000/svg">
<path fill="#000" d=" M 111.02 54.95 C 115.75 41.03 120.13 27.00 125.10 13.17 C 128.18 14.43 128.91 17.93 130.41 20.57 C 169.15 98.15 207.95 175.71 246.68 253.30 C 247.54 255.08 248.73 256.66 250.00 258.17 C 252.01 255.95 253.41 253.29 254.68 250.60 C 292.63 174.60 330.60 98.61 368.59 22.62 C 370.30 19.40 371.51 15.83 374.02 13.11 C 375.41 14.22 375.99 15.93 376.55 17.55 C 410.78 120.60 445.16 223.60 479.48 326.62 C 484.53 342.76 489.96 358.78 495.32 374.82 C 496.33 377.80 497.57 380.70 498.84 383.57 C 479.35 393.37 460.47 404.35 442.22 416.29 C 426.49 426.52 411.60 438.02 397.82 450.75 C 396.58 449.36 395.58 447.77 395.26 445.92 C 383.49 398.96 371.59 352.03 359.78 305.07 C 357.71 297.59 356.38 289.88 353.73 282.57 C 352.69 283.52 351.64 284.50 351.03 285.80 C 319.57 348.75 288.13 411.73 256.65 474.68 C 254.74 478.27 253.30 482.16 250.89 485.46 C 248.74 486.23 248.10 483.88 247.23 482.47 C 215.48 418.94 183.76 355.40 152.00 291.87 C 150.43 288.86 149.22 285.60 147.06 282.94 C 145.42 283.45 145.29 285.32 144.82 286.70 C 131.90 338.37 118.75 389.98 105.82 441.65 C 104.97 444.80 104.59 448.32 102.19 450.77 C 76.91 427.11 47.33 408.67 17.19 391.90 C 11.90 388.84 6.15 386.62 1.09 383.16 C 9.99 358.11 17.93 332.72 26.53 307.55 C 34.20 286.57 40.81 265.23 48.02 244.09 C 69.02 181.04 90.07 118.01 111.02 54.95 Z" />
</svg>
